<svg viewBox="0 0 24 24"
  xmlns="http://www.w3.org/2000/svg">
  <path d="M22.5 12c0-2.899-1.177-5.526-3.075-7.424A10.482 10.482 0 0 0 12 1.5a10.461 10.461 0 0 0-7.424 3.076A10.473 10.473 0 0 0 1.5 12c0 2.898 1.175 5.527 3.076 7.425A10.477 10.477 0 0 0 12 22.5c2.898 0 5.527-1.176 7.425-3.075A10.481 10.481 0 0 0 22.5 12Zm-1.91 0c0 2.373-.96 4.521-2.515 6.076a8.567 8.567 0 0 1-6.076 2.516 8.563 8.563 0 0 1-6.075-2.516A8.558 8.558 0 0 1 3.407 12c0-2.374.962-4.518 2.517-6.075a8.556 8.556 0 0 1 6.075-2.515c2.374 0 4.519.96 6.076 2.515A8.562 8.562 0 0 1 20.59 12Zm-4.772 0a3.808 3.808 0 0 0-1.119-2.699 3.812 3.812 0 0 0-5.401 0 3.816 3.816 0 0 0 0 5.399 3.81 3.81 0 0 0 2.701 1.119c1.054 0 2.01-.428 2.7-1.119a3.808 3.808 0 0 0 1.119-2.7Zm-1.91 0c0 .529-.212 1.004-.56 1.35a1.892 1.892 0 0 1-1.35.562 1.89 1.89 0 0 1-1.35-.562 1.892 1.892 0 0 1-.561-1.35c0-.528.213-1.002.561-1.35.346-.348.822-.56 1.35-.56.528 0 1.003.212 1.35.56.348.348.56.822.56 1.35Z"/>
</svg>