<svg viewBox="0 0 24 24"
  xmlns="http://www.w3.org/2000/svg">
  <path d="M19.399 17.712a9.445 9.445 0 0 1-1.545.126c-5.213 0-9.443-4.229-9.443-9.442 0-1.784.521-3.527 1.462-5.016a8.948 8.948 0 0 0-6.407 8.612c0 4.962 4.032 8.994 8.992 8.994a9.038 9.038 0 0 0 6.941-3.274Zm2.853-1.195a10.82 10.82 0 0 1-9.794 6.267c-5.943 0-10.791-4.848-10.791-10.792 0-5.83 4.566-10.565 10.384-10.776a.876.876 0 0 1 .856.547.9.9 0 0 1-.209 1.012 7.53 7.53 0 0 0-2.488 5.621c0 4.216 3.429 7.643 7.644 7.643 1.11 0 2.178-.239 3.204-.716a.901.901 0 0 1 1.194 1.194Z"/>
</svg>